<svg width="782" height="180" viewBox="0 0 782 180" fill="none" xmlns="http://www.w3.org/2000/svg">
<g clip-path="url(#clip0_2428_7782)">
<path d="M46.2506 120.848C44.9018 133.41 38.0425 143.276 24.1311 143.276C10.2198 143.276 3.36041 133.41 2.0502 120.848C0.855597 109.827 0.354633 98.921 0.0078125 87.8998V82.0424C0.0078125 62.7746 1.00974 38.4971 2.20434 20.578C3.36041 3.50674 10.4124 0 23.6302 0C36.8479 0 43.3604 3.50674 45.056 20.578C45.5569 25.4335 46.2506 36.4933 46.2506 42.3892C40.3308 46.7924 35.7539 52.757 33.0329 59.6146C31.3758 63.815 35.2294 65.6647 36.8864 62.6204C38.6632 59.0478 40.7386 55.6316 43.0907 52.4085C46.1775 47.8822 50.3207 44.1763 55.1619 41.6113C60.003 39.0464 65.3962 37.6997 70.8749 37.6879C92.4548 37.6879 103.168 55.9538 103.36 77.8805C103.43 92.3066 102.58 106.722 100.817 121.04C99.661 133.603 92.6475 143.468 78.7361 143.468C64.8248 143.468 57.8113 133.41 56.424 120.848C55.4221 112.177 54.9211 103.622 54.6128 94.9133C54.527 94.1265 54.1525 93.3994 53.5617 92.8727C52.9709 92.346 52.2058 92.057 51.4144 92.0617C50.7019 92.0678 50.0094 92.2982 49.4353 92.7201C48.8611 93.1421 48.4345 93.7342 48.2159 94.4123C47.7149 103.276 47.214 112.177 46.2506 120.848Z" fill="#FF8DD4"/>
<path d="M110.869 73.4149C110.522 52.6441 119.463 31.912 136.804 23.858C145.159 20.0846 154.225 18.1401 163.393 18.1547C187.17 18.1547 207.594 29.7154 206.091 56.3436C205.243 72.2203 197.227 79.465 180.31 83.6268C171.601 85.7848 158.229 85.1297 153.335 77.0757C152.526 75.7655 148.673 75.7655 149.174 78.9255C149.829 83.781 158.191 90.4862 170.098 90.4862C172.585 90.3581 175.052 89.9707 177.459 89.3301C192.526 84.9756 199.039 84.7829 203.74 98.6943C207.594 109.214 201.736 117.114 185.166 122.278C178.243 124.462 170.993 125.427 163.74 125.13C153.238 125.504 142.844 122.899 133.759 117.615C118.538 107.904 111.177 90.6403 110.869 73.4149ZM179.463 54.4939C182.16 54.8407 183.663 49.1374 179.809 48.4823C172.102 46.7867 162.892 45.438 155.378 48.4823C152.025 49.831 153.181 55.3416 155.879 54.6865C163.596 52.6229 171.712 52.5566 179.463 54.4939Z" fill="#FFA4E1"/>
<path d="M278.898 114.879C272.54 125.284 264.871 130.64 252.617 130.64C232.733 130.64 211.114 115.727 214.081 89.6383L217.935 56.4591C218.281 51.8288 220.41 47.5135 223.875 44.4225C227.34 41.3315 231.869 39.7061 236.509 39.8887H247.569C257.588 39.8887 262.636 46.4398 260.632 56.1508L253.234 91.2953C252.232 94.4552 257.087 96.4976 258.282 92.2972L266.49 56.1508C267.545 51.4676 270.184 47.292 273.961 44.3292C277.738 41.3664 282.422 39.798 287.222 39.8887H297.627C300.31 39.7517 302.992 40.1772 305.501 41.138C308.01 42.0989 310.29 43.5738 312.195 45.4681C314.1 47.3624 315.588 49.6341 316.563 52.1375C317.539 54.6409 317.98 57.3205 317.858 60.0044V107.018C318.012 127.956 313.323 145.374 303.792 159.272C293.735 173.646 276.817 180.004 259.245 180.004C249.746 179.775 240.321 178.259 231.23 175.496C219.014 171.141 218.513 159.272 221.866 149.369C225.064 140.505 230.575 132.49 241.442 133.954C245.839 134.5 250.267 134.77 254.698 134.764C268.725 134.764 276.625 127.596 282.79 117.191C284.602 113.376 280.44 112.066 278.898 114.879Z" fill="#FF8DD4"/>
<path d="M409.647 149.67C370.495 149.67 356.275 116.683 355.697 81.0378C355.697 60.614 366.063 42.5022 386.796 42.5022C407.528 42.5022 415.928 56.5677 415.928 74.4868C415.928 89.2074 413.578 105.932 399.358 116.876C396.699 118.88 399.859 122.733 402.364 120.73C417.778 109.169 421.285 92.0976 420.977 69.5157C420.784 54.1014 425.331 42.5407 442.402 42.5407C457.817 42.5407 463.982 54.1014 462.634 83.3885C461.054 117.685 441.632 149.67 409.647 149.67Z" fill="#FFA4E1"/>
<path d="M527.947 17.3408C561.242 17.3408 577.157 45.626 577.157 73.256C577.157 100.886 557.234 125.973 527.446 125.973C496.309 125.973 473.496 103.352 473.496 73.256C473.535 40.5778 494.96 17.3408 527.947 17.3408ZM526.097 84.4699C530.205 77.1159 532.18 68.7617 531.801 60.3466C531.993 56.493 526.29 56.493 526.097 59.4988C525.704 67.5373 523.658 75.4083 520.086 82.6202C518.891 85.125 523.747 87.6298 526.097 84.4699Z" fill="#FF8DD4"/>
<path d="M616.569 92.4808C620.184 97.4265 624.884 101.478 630.308 104.324C635.732 107.169 641.737 108.734 647.86 108.897C663.275 109.244 672.138 116.103 672.331 131.325C672.523 146.546 663.12 153.598 647.706 153.598C608.862 153.637 581.502 142.577 581.502 98.9163C581.502 54.0222 614.643 40.4962 653.332 49.1667C670.211 53.0203 675.413 69.7833 672.6 83.8488C670.596 95.0627 663.39 104.774 653.679 104.774C647.151 104.931 640.681 103.507 634.823 100.621C628.965 97.7357 623.892 93.4751 620.038 88.2033C619.851 87.9559 619.609 87.7552 619.332 87.617C619.054 87.4789 618.748 87.4069 618.438 87.4069C618.128 87.4069 617.823 87.4789 617.545 87.617C617.268 87.7552 617.026 87.9559 616.839 88.2033C616.257 88.7472 615.904 89.4932 615.854 90.2885C615.804 91.0838 616.06 91.8681 616.569 92.4808Z" fill="#FFA4E1"/>
<path d="M711.959 125.085C692.691 125.085 677.816 115.027 677.816 96.6458C677.816 79.8828 690.687 69.3626 707.759 66.01C723.173 62.8115 734.194 55.798 739.743 47.3973C741.901 44.0832 737.046 40.7306 734.888 43.8905C730.927 49.1331 725.784 53.3664 719.878 56.2458C713.972 59.1252 707.469 60.5694 700.899 60.4608C687.836 60.4608 680.976 53.6015 680.976 44.2373C680.976 27.3202 702.903 16.4531 728.838 16.4531C755.466 16.4531 770.687 25.8173 777.585 45.2393C783.443 61.6554 783.25 88.0909 778.587 108.515C776.391 118.38 770.88 123.582 761.169 123.582C757.108 123.915 753.074 122.678 749.899 120.126C746.723 117.574 744.646 113.901 744.098 109.864C736.545 121.232 725.023 125.085 711.959 125.085ZM737.393 86.5495C740.745 83.852 736.545 79.8443 734.387 81.5013C728.32 86.8747 721.009 90.6496 713.115 92.4839C710.456 93.1391 711.766 98.4955 715.62 97.9946C723.674 96.9541 731.188 91.5976 737.393 86.4339V86.5495Z" fill="#FF8DD4"/>
</g>
<defs>
<clipPath id="clip0_2428_7782">
<rect width="782.004" height="180" fill="white"/>
</clipPath>
</defs>
</svg>
